<svg width="180" height="38" fill="none" xmlns="http://www.w3.org/2000/svg"><path fill-rule="evenodd" clip-rule="evenodd" d="M0 0h39.447v38H0V0zm4.93 32.759V5.24h29.586V32.76h-11.71v-6.552h-6.164v6.552H4.93zm102.888-3.65c-2.004-.047-3.611-.75-4.82-2.111-1.209-1.361-1.894-3.181-2.053-5.462-.088-1.126-.004-2.449.252-3.97.256-1.529.711-2.936 1.364-4.222.653-1.286 1.47-2.355 2.45-3.21 1.642-1.435 3.531-2.13 5.667-2.083 1.316.029 2.463.352 3.443.972.989.61 1.779 1.492 2.37 2.646.592 1.154.936 2.468 1.033 3.941.071 1.042.009 2.229-.185 3.562a15.071 15.071 0 0 1-1.046 3.8 11.618 11.618 0 0 1-1.96 3.181 9.161 9.161 0 0 1-2.847 2.196c-1.086.535-2.309.788-3.668.76zm5.164-13.541c-.088-2.346-.944-3.566-2.569-3.66-1.253-.065-2.291.465-3.112 1.59-.821 1.118-1.364 2.77-1.628 4.956-.168 1.35-.23 2.397-.186 3.139.088 2.383.954 3.608 2.596 3.673 1.077.057 2.004-.352 2.781-1.224.776-.882 1.337-2.159 1.681-3.829.345-1.68.49-3.228.437-4.645zm-47.513 13.26h4.528l3.35-20.495h-15.77l-3.338 20.495h4.53l2.727-16.68h6.687l-2.714 16.68zM96.167 8.333h-4.648l-8.647 12.654 2.079-12.654h-4.542l-3.35 20.495h4.661l8.647-12.64-2.08 12.64h4.543l3.337-20.495zm36.939 20.495h4.503l3.35-20.495h-4.516l-1.324 8.136h-6.621l1.338-8.136h-4.542l-3.338 20.495h4.529l1.404-8.559h6.608l-1.391 8.559zm24.309-8.685h-7.085l-.807 4.884h8.382l-.622 3.8h-12.911l3.337-20.494h12.937l-.622 3.815h-8.396l-.715 4.32h7.098l-.596 3.675zm10.14 8.685 1.138-6.954 3.179.014c1.474 0 2.802-.267 3.985-.802 1.192-.535 2.15-1.31 2.874-2.323.724-1.013 1.139-2.21 1.245-3.59.149-2.017-.393-3.659-1.629-4.926-1.227-1.267-2.913-1.9-5.059-1.9l-6.925-.014-3.337 20.495h4.529zm4.489-10.74-2.728-.029.966-5.911 3.165.014c.557.037 1.002.225 1.338.563.344.328.551.779.622 1.351.124 1.117-.119 2.06-.728 2.83-.609.76-1.488 1.153-2.635 1.182z" fill="#607CE6"/></svg>